<svg xmlns="http://www.w3.org/2000/svg" version="1.1" xmlns:xlink="http://www.w3.org/1999/xlink" xmlns:svgjs="http://svgjs.dev/svgjs" width="1000" height="1000" viewBox="0 0 1000 1000"><rect width="1000" height="1000" fill="#ffffff"></rect><g transform="matrix(0.7,0,0,0.7,149.57575757575756,282.1265587044535)"><svg viewBox="0 0 396 247" data-background-color="#ffffff" preserveAspectRatio="xMidYMid meet" height="623" width="1000" xmlns="http://www.w3.org/2000/svg" xmlns:xlink="http://www.w3.org/1999/xlink"><g id="tight-bounds" transform="matrix(1,0,0,1,0.2400000000000091,-0.09999999999999432)"><svg viewBox="0 0 395.52 247.2" height="247.2" width="395.52"><g><svg></svg></g><g><svg viewBox="0 0 395.52 247.2" height="247.2" width="395.52"><g><path d="M55.039 247.2l54.601-94.571 176.24 0 54.601 94.571zM197.76 0l54.601 94.571-109.202 0z" fill="#755bb4" fill-rule="nonzero" stroke="none" stroke-width="1" stroke-linecap="butt" stroke-linejoin="miter" stroke-miterlimit="10" stroke-dasharray="" stroke-dashoffset="0" font-family="none" font-weight="none" font-size="none" text-anchor="none" style="mix-blend-mode: normal" data-fill-palette-color="tertiary"></path></g><g transform="matrix(1,0,0,1,0,102.86501385900459)"><svg viewBox="0 0 395.52 41.469972281990806" height="41.469972281990806" width="395.52"><g><svg viewBox="0 0 395.52 41.469972281990806" height="41.469972281990806" width="395.52"><g><svg viewBox="0 0 395.52 41.469972281990806" height="41.469972281990806" width="395.52"><g><svg viewBox="0 0 395.52 41.469972281990806" height="41.469972281990806" width="395.52"><g id="textblocktransform"><svg viewBox="0 0 395.52 41.469972281990806" height="41.469972281990806" width="395.52" id="textblock"><g><svg viewBox="0 0 395.52 41.469972281990806" height="41.469972281990806" width="395.52"><g transform="matrix(1,0,0,1,0,0)"><svg width="395.52" viewBox="-1.24 -40.99 520.62 55.49" height="41.469972281990806" data-palette-color="#755bb4"><path d="M1.76-12.74L1.76-12.74Q1.76-15.5 2.76-17.92 3.76-20.34 5.54-22.14 7.32-23.95 9.79-25 12.26-26.05 15.21-26.05L15.21-26.05Q18.16-26.05 20.64-25 23.12-23.95 24.9-22.14 26.68-20.34 27.67-17.92 28.66-15.5 28.66-12.74L28.66-12.74Q28.66-9.99 27.7-7.56 26.73-5.13 24.96-3.31 23.19-1.49 20.72-0.44 18.24 0.61 15.21 0.61L15.21 0.61Q12.16 0.61 9.68-0.44 7.2-1.49 5.44-3.3 3.69-5.1 2.72-7.53 1.76-9.96 1.76-12.74ZM9.06-12.74L9.06-12.74Q9.06-11.3 9.55-10.1 10.03-8.89 10.88-8.01 11.72-7.13 12.83-6.64 13.94-6.15 15.21-6.15L15.21-6.15Q16.5-6.15 17.61-6.63 18.73-7.1 19.54-7.98 20.36-8.86 20.83-10.07 21.29-11.28 21.29-12.74L21.29-12.74Q21.29-14.26 20.83-15.48 20.36-16.7 19.54-17.55 18.73-18.41 17.61-18.86 16.5-19.31 15.21-19.29L15.21-19.29Q13.94-19.31 12.83-18.86 11.72-18.41 10.88-17.55 10.03-16.7 9.55-15.48 9.06-14.26 9.06-12.74ZM53.15 0L53.15-14.55Q53.15-16.67 52.02-17.88 50.9-19.09 49.05-19.09L49.05-19.09Q47.78-19.09 46.48-18.53 45.19-17.97 43.97-16.43L43.97-16.43 43.97-6.69 48.07-6.69 48.07 0 32.35 0 32.35-6.69 36.06-6.69 36.06-18.6 32.39-18.6 32.39-25.29 43.92-25.29 43.92-23.07Q45.51-24.32 47.47-25.04 49.44-25.76 51.61-25.76L51.61-25.76Q56.17-25.76 58.64-23.21 61.11-20.65 61.11-15.75L61.11-15.75 61.11-6.69 64.69-6.69 64.69 0 53.15 0ZM93.18-11.06L74.56-11.06 74.63-10.3Q74.9-9.2 75.54-8.37 76.19-7.54 77.07-6.98 77.95-6.42 79.02-6.14 80.1-5.86 81.2-5.86L81.2-5.86Q82.29-5.86 83.28-5.99 84.27-6.13 85.2-6.36 86.13-6.59 87.01-6.9 87.89-7.2 88.79-7.54L88.79-7.54 91.47-2.54Q90.08-1.68 88.92-1.09 87.76-0.49 86.59-0.1 85.42 0.29 84.1 0.48 82.78 0.66 81.03 0.66L81.03 0.66Q77.73 0.66 75.17-0.43 72.6-1.51 70.86-3.37 69.11-5.22 68.2-7.71 67.28-10.21 67.28-12.99L67.28-12.99Q67.28-15.77 68.24-18.21 69.21-20.65 70.97-22.47 72.72-24.29 75.17-25.34 77.61-26.39 80.59-26.39L80.59-26.39Q83.56-26.39 85.87-25.4 88.18-24.41 89.77-22.67 91.35-20.92 92.21-18.57 93.06-16.21 93.13-13.5L93.13-13.5Q93.21-12.89 93.22-12.29 93.23-11.69 93.18-11.06L93.18-11.06ZM80.39-20.29L80.39-20.29Q79.02-20.29 78.06-19.96 77.09-19.63 76.44-19.06 75.78-18.48 75.39-17.75 75-17.02 74.78-16.21L74.78-16.21 85.35-16.21Q85.18-17.04 84.86-17.77 84.54-18.51 83.98-19.07 83.42-19.63 82.55-19.96 81.68-20.29 80.39-20.29ZM123.09-17.55Q123.09-18.14 122.71-18.68 122.33-19.21 121.6-19.62 120.86-20.02 119.8-20.26 118.74-20.51 117.4-20.51L117.4-20.51Q116.88-20.51 116.3-20.42 115.71-20.34 115.21-20.12 114.71-19.9 114.38-19.52 114.05-19.14 114.05-18.55L114.05-18.55Q114.05-18.26 114.14-17.99 114.22-17.72 114.47-17.48 114.71-17.24 115.14-17.03 115.57-16.82 116.25-16.7L116.25-16.7 120.84-15.8Q123.33-15.31 125.01-14.58 126.7-13.84 127.72-12.87 128.75-11.89 129.2-10.69 129.65-9.5 129.65-8.11L129.65-8.11Q129.65-5.93 128.64-4.3 127.63-2.66 125.98-1.57 124.33-0.49 122.27 0.06 120.2 0.61 118.11 0.61L118.11 0.61Q116.74 0.61 115.63 0.44 114.52 0.27 113.63-0.02 112.73-0.32 112.04-0.72 111.34-1.12 110.76-1.61L110.76-1.61 106.34-1.61 106.34-8.4 113.25-8.4 113.25-8.25Q113.27-7.54 113.69-7.02 114.1-6.49 114.77-6.13 115.44-5.76 116.3-5.58 117.15-5.4 118.11-5.4L118.11-5.4Q120.3-5.4 121.3-5.97 122.3-6.54 122.3-7.45L122.3-7.45Q122.3-8.15 121.82-8.65 121.33-9.16 120.08-9.45L120.08-9.45 115.4-10.45Q110.98-11.3 108.73-13.29 106.48-15.28 106.48-18.41L106.48-18.41Q106.48-20.24 107.34-21.74 108.19-23.24 109.66-24.3 111.12-25.37 113.09-25.95 115.05-26.54 117.3-26.54L117.3-26.54Q118.84-26.54 120.03-26.35 121.23-26.17 122.18-25.88 123.13-25.59 123.85-25.18 124.57-24.78 125.14-24.34L125.14-24.34 129.38-24.34 129.38-17.55 123.09-17.55ZM143.44-34.96L143.4-25.29 148.45-25.29 148.45-18.9 143.35-18.9 143.3-8.2Q143.3-7.28 143.44-6.7 143.59-6.13 143.87-5.79 144.15-5.44 144.54-5.32 144.93-5.2 145.45-5.2L145.45-5.2Q146.37-5.2 147.08-5.38 147.79-5.57 148.5-5.81L148.5-5.81 149.55-1.1Q148.3-0.32 146.78 0.15 145.25 0.61 143.15 0.61L143.15 0.61Q141.66 0.61 140.31 0.1 138.95-0.42 137.93-1.45 136.9-2.49 136.29-4.05 135.68-5.62 135.71-7.69L135.71-7.69 135.78-18.9 132.14-18.9 132.14-25.29 135.8-25.29 135.85-31.35 143.44-34.96ZM153.18-12.74L153.18-12.74Q153.18-15.5 154.18-17.92 155.19-20.34 156.97-22.14 158.75-23.95 161.22-25 163.68-26.05 166.64-26.05L166.64-26.05Q169.59-26.05 172.07-25 174.55-23.95 176.33-22.14 178.11-20.34 179.1-17.92 180.09-15.5 180.09-12.74L180.09-12.74Q180.09-9.99 179.12-7.56 178.16-5.13 176.39-3.31 174.62-1.49 172.14-0.44 169.66 0.61 166.64 0.61L166.64 0.61Q163.58 0.61 161.11-0.44 158.63-1.49 156.87-3.3 155.11-5.1 154.15-7.53 153.18-9.96 153.18-12.74ZM160.48-12.74L160.48-12.74Q160.48-11.3 160.97-10.1 161.46-8.89 162.3-8.01 163.14-7.13 164.26-6.64 165.37-6.15 166.64-6.15L166.64-6.15Q167.93-6.15 169.04-6.63 170.15-7.1 170.97-7.98 171.79-8.86 172.25-10.07 172.71-11.28 172.71-12.74L172.71-12.74Q172.71-14.26 172.25-15.48 171.79-16.7 170.97-17.55 170.15-18.41 169.04-18.86 167.93-19.31 166.64-19.29L166.64-19.29Q165.37-19.31 164.26-18.86 163.14-18.41 162.3-17.55 161.46-16.7 160.97-15.48 160.48-14.26 160.48-12.74ZM184.72-18.6L184.72-25.29 195.76-25.29 195.76-24.93Q196.93-25.44 198.15-25.74 199.37-26.05 200.67-26.05L200.67-26.05Q203.45-26.05 205.84-25 208.23-23.95 209.99-22.14 211.75-20.34 212.74-17.92 213.73-15.5 213.73-12.79L213.73-12.79Q213.73-10.06 212.76-7.64 211.8-5.22 210.07-3.43 208.33-1.64 205.93-0.6 203.52 0.44 200.67 0.44L200.67 0.44Q199.05 0.44 197.66 0.13 196.27-0.17 194.98-0.73L194.98-0.73 194.98 4.81 199.81 4.81 199.81 11.5 183.31 11.5 183.31 4.81 187.46 4.81 187.46-18.6 184.72-18.6ZM200.13-19.31L200.13-19.31Q198.59-19.31 197.25-18.51 195.91-17.7 194.98-16.24L194.98-16.24 194.98-9.11Q195.76-7.86 197.1-7.08 198.44-6.3 200.13-6.3L200.13-6.3Q201.37-6.3 202.5-6.77 203.62-7.25 204.45-8.12 205.28-8.98 205.77-10.17 206.26-11.35 206.26-12.74L206.26-12.74Q206.26-14.28 205.78-15.5 205.3-16.72 204.47-17.57 203.64-18.41 202.52-18.86 201.4-19.31 200.13-19.31ZM252.37-11.06L233.74-11.06 233.82-10.3Q234.08-9.2 234.73-8.37 235.38-7.54 236.26-6.98 237.14-6.42 238.21-6.14 239.28-5.86 240.38-5.86L240.38-5.86Q241.48-5.86 242.47-5.99 243.46-6.13 244.39-6.36 245.31-6.59 246.19-6.9 247.07-7.2 247.98-7.54L247.98-7.54 250.66-2.54Q249.27-1.68 248.11-1.09 246.95-0.49 245.78-0.1 244.61 0.29 243.29 0.48 241.97 0.66 240.21 0.66L240.21 0.66Q236.92 0.66 234.35-0.43 231.79-1.51 230.04-3.37 228.3-5.22 227.38-7.71 226.47-10.21 226.47-12.99L226.47-12.99Q226.47-15.77 227.43-18.21 228.4-20.65 230.15-22.47 231.91-24.29 234.35-25.34 236.79-26.39 239.77-26.39L239.77-26.39Q242.75-26.39 245.06-25.4 247.37-24.41 248.95-22.67 250.54-20.92 251.39-18.57 252.25-16.21 252.32-13.5L252.32-13.5Q252.39-12.89 252.41-12.29 252.42-11.69 252.37-11.06L252.37-11.06ZM239.58-20.29L239.58-20.29Q238.21-20.29 237.25-19.96 236.28-19.63 235.62-19.06 234.96-18.48 234.57-17.75 234.18-17.02 233.96-16.21L233.96-16.21 244.53-16.21Q244.36-17.04 244.04-17.77 243.73-18.51 243.17-19.07 242.6-19.63 241.74-19.96 240.87-20.29 239.58-20.29ZM255.61-31.3L255.61-37.99 267.02-37.99 267.02-6.69 270.92-6.69 270.92 0 255.61 0 255.61-6.69 259.52-6.69 259.52-31.3 255.61-31.3ZM300.36-11.06L281.74-11.06 281.81-10.3Q282.08-9.2 282.72-8.37 283.37-7.54 284.25-6.98 285.13-6.42 286.2-6.14 287.28-5.86 288.38-5.86L288.38-5.86Q289.47-5.86 290.46-5.99 291.45-6.13 292.38-6.36 293.31-6.59 294.19-6.9 295.07-7.2 295.97-7.54L295.97-7.54 298.65-2.54Q297.26-1.68 296.1-1.09 294.94-0.49 293.77-0.1 292.6 0.29 291.28 0.48 289.96 0.66 288.2 0.66L288.2 0.66Q284.91 0.66 282.35-0.43 279.78-1.51 278.04-3.37 276.29-5.22 275.38-7.71 274.46-10.21 274.46-12.99L274.46-12.99Q274.46-15.77 275.42-18.21 276.39-20.65 278.15-22.47 279.9-24.29 282.35-25.34 284.79-26.39 287.77-26.39L287.77-26.39Q290.74-26.39 293.05-25.4 295.36-24.41 296.95-22.67 298.53-20.92 299.39-18.57 300.24-16.21 300.31-13.5L300.31-13.5Q300.39-12.89 300.4-12.29 300.41-11.69 300.36-11.06L300.36-11.06ZM287.57-20.29L287.57-20.29Q286.2-20.29 285.24-19.96 284.27-19.63 283.62-19.06 282.96-18.48 282.57-17.75 282.17-17.02 281.95-16.21L281.95-16.21 292.53-16.21Q292.36-17.04 292.04-17.77 291.72-18.51 291.16-19.07 290.6-19.63 289.73-19.96 288.86-20.29 287.57-20.29ZM329.8-16.55L323.07-16.55Q322.02-17.87 320.72-18.54 319.43-19.21 317.67-19.12L317.67-19.12Q316.25-19.21 315.09-18.73 313.93-18.24 313.09-17.36 312.25-16.48 311.79-15.27 311.32-14.06 311.32-12.55L311.32-12.55Q311.32-11.21 311.81-10.01 312.3-8.81 313.14-7.95 313.98-7.08 315.14-6.59 316.3-6.1 317.67-6.01L317.67-6.01Q318.82-6.1 319.76-6.48 320.7-6.86 321.43-7.46 322.16-8.06 322.69-8.8 323.21-9.55 323.51-10.21L323.51-10.21 330.22-8.35Q329.8-6.88 328.79-5.3 327.78-3.71 326.15-2.4 324.53-1.1 322.3-0.24 320.06 0.61 317.21 0.61L317.21 0.61Q314.3 0.61 311.86-0.45 309.42-1.51 307.66-3.34 305.9-5.18 304.91-7.64 303.93-10.11 303.93-12.94L303.93-12.94Q303.93-15.75 304.94-18.15 305.95-20.56 307.73-22.35 309.52-24.15 311.97-25.15 314.42-26.15 317.3-26.05L317.3-26.05Q319.35-26.15 321.28-25.59 323.21-25.02 324.95-23.9L324.95-23.9 329.8-23.9 329.8-16.55ZM342.52-34.96L342.47-25.29 347.53-25.29 347.53-18.9 342.42-18.9 342.37-8.2Q342.37-7.28 342.52-6.7 342.67-6.13 342.95-5.79 343.23-5.44 343.62-5.32 344.01-5.2 344.52-5.2L344.52-5.2Q345.45-5.2 346.16-5.38 346.87-5.57 347.57-5.81L347.57-5.81 348.62-1.1Q347.38-0.32 345.85 0.15 344.33 0.61 342.23 0.61L342.23 0.61Q340.74 0.61 339.38 0.1 338.03-0.42 337-1.45 335.98-2.49 335.37-4.05 334.76-5.62 334.78-7.69L334.78-7.69 334.86-18.9 331.22-18.9 331.22-25.29 334.88-25.29 334.93-31.35 342.52-34.96ZM375.4-25.24L375.4-16.09 368.54-16.09 368.54-18.7Q367.54-18.7 366.71-18.57 365.88-18.43 365.26-18.12 364.64-17.8 364.21-17.24 363.78-16.67 363.61-15.84L363.61-15.84 363.61-6.69 368.76-6.69 368.76 0 352.26 0 352.26-6.69 356.04-6.69 356.04-18.6 352.31-18.6 352.31-25.29 363.56-25.29 363.56-23.51Q364.64-24.37 365.98-24.83 367.32-25.29 368.91-25.29L368.91-25.29Q370.52-25.29 372.23-25.27 373.94-25.24 375.4-25.24L375.4-25.24ZM379.36-12.74L379.36-12.74Q379.36-15.5 380.36-17.92 381.36-20.34 383.14-22.14 384.92-23.95 387.39-25 389.86-26.05 392.81-26.05L392.81-26.05Q395.76-26.05 398.24-25 400.72-23.95 402.5-22.14 404.28-20.34 405.27-17.92 406.26-15.5 406.26-12.74L406.26-12.74Q406.26-9.99 405.3-7.56 404.33-5.13 402.56-3.31 400.79-1.49 398.31-0.44 395.84 0.61 392.81 0.61L392.81 0.61Q389.76 0.61 387.28-0.44 384.8-1.49 383.04-3.3 381.29-5.1 380.32-7.53 379.36-9.96 379.36-12.74ZM386.66-12.74L386.66-12.74Q386.66-11.3 387.15-10.1 387.63-8.89 388.48-8.01 389.32-7.13 390.43-6.64 391.54-6.15 392.81-6.15L392.81-6.15Q394.1-6.15 395.21-6.63 396.32-7.1 397.14-7.98 397.96-8.86 398.42-10.07 398.89-11.28 398.89-12.74L398.89-12.74Q398.89-14.26 398.42-15.48 397.96-16.7 397.14-17.55 396.32-18.41 395.21-18.86 394.1-19.31 392.81-19.29L392.81-19.29Q391.54-19.31 390.43-18.86 389.32-18.41 388.48-17.55 387.63-16.7 387.15-15.48 386.66-14.26 386.66-12.74ZM430.75 0L430.75-14.55Q430.75-16.67 429.62-17.88 428.5-19.09 426.64-19.09L426.64-19.09Q425.38-19.09 424.08-18.53 422.79-17.97 421.57-16.43L421.57-16.43 421.57-6.69 425.67-6.69 425.67 0 409.95 0 409.95-6.69 413.66-6.69 413.66-18.6 409.99-18.6 409.99-25.29 421.52-25.29 421.52-23.07Q423.1-24.32 425.07-25.04 427.04-25.76 429.21-25.76L429.21-25.76Q433.77-25.76 436.24-23.21 438.71-20.65 438.71-15.75L438.71-15.75 438.71-6.69 442.29-6.69 442.29 0 430.75 0ZM445.59-18.6L445.59-25.29 456.94-25.29 456.94-6.69 460.46-6.69 460.46 0 445.59 0 445.59-6.69 449.4-6.69 449.4-18.6 445.59-18.6ZM449.01-33.45L449.01-33.45Q449.01-34.35 449.33-35.14 449.66-35.94 450.25-36.52 450.84-37.11 451.63-37.45 452.42-37.79 453.35-37.79L453.35-37.79Q454.23-37.79 455.01-37.45 455.79-37.11 456.38-36.52 456.96-35.94 457.31-35.14 457.65-34.35 457.65-33.45L457.65-33.45Q457.65-32.54 457.31-31.75 456.96-30.96 456.38-30.37 455.79-29.79 455.01-29.44 454.23-29.1 453.35-29.1L453.35-29.1Q452.42-29.1 451.63-29.44 450.84-29.79 450.25-30.37 449.66-30.96 449.33-31.75 449.01-32.54 449.01-33.45ZM490.56-16.55L483.82-16.55Q482.77-17.87 481.47-18.54 480.18-19.21 478.42-19.12L478.42-19.12Q477.01-19.21 475.85-18.73 474.69-18.24 473.84-17.36 473-16.48 472.54-15.27 472.07-14.06 472.07-12.55L472.07-12.55Q472.07-11.21 472.56-10.01 473.05-8.81 473.89-7.95 474.74-7.08 475.89-6.59 477.05-6.1 478.42-6.01L478.42-6.01Q479.57-6.1 480.51-6.48 481.45-6.86 482.18-7.46 482.91-8.06 483.44-8.8 483.96-9.55 484.26-10.21L484.26-10.21 490.97-8.35Q490.56-6.88 489.54-5.3 488.53-3.71 486.91-2.4 485.28-1.1 483.05-0.24 480.81 0.61 477.96 0.61L477.96 0.61Q475.05 0.61 472.61-0.45 470.17-1.51 468.41-3.34 466.65-5.18 465.67-7.64 464.68-10.11 464.68-12.94L464.68-12.94Q464.68-15.75 465.69-18.15 466.7-20.56 468.49-22.35 470.27-24.15 472.72-25.15 475.17-26.15 478.06-26.05L478.06-26.05Q480.11-26.15 482.04-25.59 483.96-25.02 485.7-23.9L485.7-23.9 490.56-23.9 490.56-16.55ZM509.82-17.55Q509.82-18.14 509.44-18.68 509.06-19.21 508.33-19.62 507.59-20.02 506.53-20.26 505.47-20.51 504.13-20.51L504.13-20.51Q503.61-20.51 503.03-20.42 502.44-20.34 501.94-20.12 501.44-19.9 501.11-19.52 500.78-19.14 500.78-18.55L500.78-18.55Q500.78-18.26 500.87-17.99 500.95-17.72 501.2-17.48 501.44-17.24 501.87-17.03 502.3-16.82 502.98-16.7L502.98-16.7 507.57-15.8Q510.06-15.31 511.74-14.58 513.43-13.84 514.45-12.87 515.48-11.89 515.93-10.69 516.38-9.5 516.38-8.11L516.38-8.11Q516.38-5.93 515.37-4.3 514.36-2.66 512.71-1.57 511.06-0.49 509 0.06 506.93 0.61 504.84 0.61L504.84 0.61Q503.47 0.61 502.36 0.44 501.25 0.27 500.36-0.02 499.46-0.32 498.77-0.72 498.07-1.12 497.49-1.61L497.49-1.61 493.07-1.61 493.07-8.4 499.98-8.4 499.98-8.25Q500-7.54 500.42-7.02 500.83-6.49 501.5-6.13 502.17-5.76 503.03-5.58 503.88-5.4 504.84-5.4L504.84-5.4Q507.03-5.4 508.03-5.97 509.03-6.54 509.03-7.45L509.03-7.45Q509.03-8.15 508.55-8.65 508.06-9.16 506.81-9.45L506.81-9.45 502.13-10.45Q497.71-11.3 495.46-13.29 493.21-15.28 493.21-18.41L493.21-18.41Q493.21-20.24 494.07-21.74 494.92-23.24 496.39-24.3 497.85-25.37 499.82-25.95 501.78-26.54 504.03-26.54L504.03-26.54Q505.57-26.54 506.76-26.35 507.96-26.17 508.91-25.88 509.86-25.59 510.58-25.18 511.31-24.78 511.87-24.34L511.87-24.34 516.11-24.34 516.11-17.55 509.82-17.55Z" opacity="1" transform="matrix(1,0,0,1,0,0)" fill="#755bb4" class="wordmark-text-0" data-fill-palette-color="primary" id="text-0"></path></svg></g></svg></g></svg></g></svg></g><g></g></svg></g></svg></g></svg></g></svg></g><defs></defs></svg><rect width="395.52" height="247.2" fill="none" stroke="none" visibility="hidden"></rect></g></svg></g></svg>