<?xml version="1.0" encoding="UTF-8"?>
<svg xmlns="http://www.w3.org/2000/svg" xmlns:xlink="http://www.w3.org/1999/xlink" width="150px" height="94px" viewBox="0 0 150 94" version="1.1">
<defs>
<clipPath id="clip1">
  <path d="M 20 0.0390625 L 129 0.0390625 L 129 94 L 20 94 Z M 20 0.0390625 "/>
</clipPath>
<clipPath id="clip2">
  <path d="M 2 40 L 148 40 L 148 54.929688 L 2 54.929688 Z M 2 40 "/>
</clipPath>
</defs>
<g id="surface1">
<g clip-path="url(#clip1)" clip-rule="nonzero">
<path style=" stroke:none;fill-rule:nonzero;fill:rgb(100%,100%,100%);fill-opacity:1;" d="M 20.867188 94.074219 L 41.542969 58.085938 L 108.273438 58.085938 L 128.949219 94.074219 Z M 74.910156 0 L 95.582031 35.992188 L 54.234375 35.992188 Z M 74.910156 0 "/>
</g>
<g clip-path="url(#clip2)" clip-rule="nonzero">
<path style=" stroke:none;fill-rule:nonzero;fill:rgb(100%,100%,100%);fill-opacity:1;" d="M 2.097656 47.183594 C 2.097656 46.660156 2.191406 46.167969 2.378906 45.707031 C 2.566406 45.25 2.832031 44.847656 3.167969 44.507812 C 3.503906 44.164062 3.902344 43.894531 4.367188 43.695312 C 4.835938 43.496094 5.347656 43.394531 5.902344 43.394531 C 6.460938 43.394531 6.972656 43.496094 7.4375 43.695312 C 7.90625 43.894531 8.308594 44.164062 8.644531 44.507812 C 8.980469 44.847656 9.242188 45.25 9.429688 45.707031 C 9.613281 46.167969 9.707031 46.660156 9.707031 47.183594 C 9.707031 47.703125 9.617188 48.195312 9.4375 48.65625 C 9.253906 49.117188 8.996094 49.519531 8.660156 49.863281 C 8.328125 50.207031 7.925781 50.480469 7.460938 50.679688 C 6.992188 50.878906 6.472656 50.980469 5.902344 50.980469 C 5.328125 50.980469 4.804688 50.878906 4.335938 50.679688 C 3.871094 50.480469 3.46875 50.210938 3.136719 49.867188 C 2.808594 49.523438 2.550781 49.125 2.367188 48.664062 C 2.1875 48.203125 2.097656 47.707031 2.097656 47.183594 Z M 4.164062 47.183594 C 4.164062 47.453125 4.207031 47.703125 4.300781 47.933594 C 4.390625 48.160156 4.515625 48.359375 4.675781 48.527344 C 4.835938 48.695312 5.019531 48.824219 5.230469 48.917969 C 5.4375 49.007812 5.664062 49.054688 5.902344 49.054688 C 6.144531 49.054688 6.371094 49.011719 6.582031 48.917969 C 6.792969 48.832031 6.976562 48.703125 7.128906 48.535156 C 7.28125 48.367188 7.402344 48.171875 7.492188 47.941406 C 7.578125 47.710938 7.621094 47.457031 7.621094 47.183594 C 7.621094 46.894531 7.578125 46.632812 7.492188 46.402344 C 7.402344 46.171875 7.28125 45.976562 7.128906 45.8125 C 6.976562 45.652344 6.792969 45.527344 6.582031 45.441406 C 6.371094 45.355469 6.144531 45.316406 5.902344 45.320312 C 5.664062 45.316406 5.4375 45.355469 5.230469 45.441406 C 5.019531 45.527344 4.835938 45.652344 4.675781 45.8125 C 4.515625 45.976562 4.390625 46.171875 4.300781 46.402344 C 4.207031 46.632812 4.164062 46.894531 4.164062 47.183594 Z M 16.636719 50.804688 L 16.636719 46.667969 C 16.636719 46.265625 16.53125 45.949219 16.320312 45.71875 C 16.109375 45.492188 15.828125 45.375 15.476562 45.375 C 15.238281 45.375 14.996094 45.429688 14.75 45.535156 C 14.507812 45.640625 14.269531 45.839844 14.039062 46.132812 L 14.039062 48.902344 L 15.199219 48.902344 L 15.199219 50.804688 L 10.753906 50.804688 L 10.753906 48.902344 L 11.800781 48.902344 L 11.800781 45.515625 L 10.765625 45.515625 L 10.765625 43.613281 L 14.027344 43.613281 L 14.027344 44.242188 C 14.328125 44.007812 14.660156 43.820312 15.03125 43.683594 C 15.402344 43.546875 15.792969 43.480469 16.203125 43.480469 C 17.0625 43.480469 17.726562 43.71875 18.191406 44.203125 C 18.65625 44.6875 18.890625 45.398438 18.890625 46.324219 L 18.890625 48.902344 L 19.902344 48.902344 L 19.902344 50.804688 Z M 27.964844 47.660156 L 22.695312 47.660156 L 22.71875 47.875 C 22.769531 48.085938 22.855469 48.265625 22.972656 48.425781 C 23.097656 48.582031 23.242188 48.714844 23.40625 48.820312 C 23.574219 48.925781 23.757812 49.003906 23.960938 49.058594 C 24.164062 49.113281 24.367188 49.136719 24.574219 49.136719 C 24.78125 49.136719 24.976562 49.125 25.164062 49.101562 C 25.351562 49.074219 25.53125 49.039062 25.707031 48.996094 C 25.882812 48.953125 26.054688 48.902344 26.21875 48.84375 C 26.386719 48.785156 26.554688 48.726562 26.722656 48.660156 L 27.480469 50.082031 C 27.21875 50.246094 26.980469 50.382812 26.761719 50.496094 C 26.542969 50.609375 26.320312 50.703125 26.101562 50.777344 C 25.878906 50.851562 25.644531 50.90625 25.398438 50.941406 C 25.148438 50.976562 24.859375 50.992188 24.527344 50.992188 C 23.90625 50.992188 23.351562 50.890625 22.871094 50.683594 C 22.386719 50.476562 21.976562 50.199219 21.648438 49.847656 C 21.320312 49.496094 21.070312 49.085938 20.898438 48.613281 C 20.722656 48.136719 20.636719 47.636719 20.636719 47.109375 C 20.636719 46.582031 20.726562 46.089844 20.910156 45.625 C 21.089844 45.164062 21.347656 44.757812 21.679688 44.414062 C 22.011719 44.070312 22.40625 43.796875 22.871094 43.597656 C 23.332031 43.398438 23.839844 43.300781 24.402344 43.300781 C 24.964844 43.300781 25.460938 43.394531 25.898438 43.582031 C 26.332031 43.769531 26.703125 44.027344 27 44.359375 C 27.300781 44.6875 27.53125 45.078125 27.691406 45.523438 C 27.851562 45.972656 27.9375 46.453125 27.953125 46.964844 C 27.96875 47.082031 27.976562 47.195312 27.976562 47.308594 C 27.980469 47.421875 27.976562 47.539062 27.964844 47.660156 Z M 24.347656 45.035156 C 24.089844 45.035156 23.867188 45.066406 23.6875 45.128906 C 23.503906 45.191406 23.351562 45.277344 23.230469 45.382812 C 23.105469 45.496094 23.003906 45.617188 22.933594 45.757812 C 22.859375 45.894531 22.800781 46.042969 22.757812 46.195312 L 25.75 46.195312 C 25.71875 46.039062 25.671875 45.890625 25.613281 45.75 C 25.550781 45.609375 25.46875 45.488281 25.363281 45.382812 C 25.257812 45.273438 25.121094 45.191406 24.957031 45.128906 C 24.792969 45.066406 24.589844 45.035156 24.347656 45.035156 Z M 36.429688 45.8125 C 36.429688 45.703125 36.394531 45.59375 36.324219 45.492188 C 36.25 45.390625 36.144531 45.300781 36.007812 45.226562 C 35.867188 45.148438 35.699219 45.089844 35.5 45.042969 C 35.300781 44.996094 35.074219 44.972656 34.820312 44.972656 C 34.722656 44.972656 34.617188 44.980469 34.507812 44.996094 C 34.398438 45.011719 34.292969 45.039062 34.199219 45.082031 C 34.105469 45.125 34.027344 45.179688 33.964844 45.253906 C 33.902344 45.324219 33.871094 45.417969 33.871094 45.527344 C 33.871094 45.585938 33.878906 45.636719 33.898438 45.6875 C 33.914062 45.738281 33.945312 45.789062 33.992188 45.832031 C 34.035156 45.878906 34.097656 45.921875 34.179688 45.960938 C 34.261719 46 34.367188 46.03125 34.496094 46.054688 L 35.792969 46.3125 C 36.261719 46.402344 36.65625 46.519531 36.972656 46.660156 C 37.292969 46.796875 37.546875 46.960938 37.738281 47.144531 C 37.933594 47.332031 38.074219 47.539062 38.160156 47.765625 C 38.242188 47.992188 38.285156 48.234375 38.285156 48.5 C 38.285156 48.910156 38.191406 49.273438 38 49.582031 C 37.808594 49.894531 37.558594 50.152344 37.246094 50.359375 C 36.9375 50.5625 36.585938 50.71875 36.199219 50.820312 C 35.808594 50.925781 35.414062 50.980469 35.019531 50.980469 C 34.761719 50.980469 34.527344 50.960938 34.320312 50.929688 C 34.109375 50.898438 33.921875 50.855469 33.753906 50.800781 C 33.582031 50.742188 33.433594 50.675781 33.304688 50.601562 C 33.171875 50.523438 33.050781 50.441406 32.941406 50.347656 L 31.691406 50.347656 L 31.691406 48.417969 L 33.644531 48.417969 L 33.644531 48.457031 C 33.648438 48.59375 33.691406 48.710938 33.769531 48.808594 C 33.847656 48.910156 33.949219 48.992188 34.074219 49.0625 C 34.203125 49.132812 34.347656 49.183594 34.507812 49.21875 C 34.667969 49.253906 34.839844 49.269531 35.019531 49.269531 C 35.433594 49.269531 35.734375 49.214844 35.921875 49.105469 C 36.113281 49 36.207031 48.859375 36.207031 48.6875 C 36.207031 48.554688 36.160156 48.441406 36.070312 48.34375 C 35.976562 48.25 35.8125 48.171875 35.578125 48.117188 L 34.253906 47.832031 C 33.421875 47.671875 32.789062 47.402344 32.367188 47.023438 C 31.941406 46.648438 31.730469 46.164062 31.730469 45.570312 C 31.730469 45.222656 31.8125 44.90625 31.972656 44.621094 C 32.132812 44.335938 32.351562 44.09375 32.628906 43.894531 C 32.90625 43.691406 33.230469 43.535156 33.601562 43.425781 C 33.96875 43.3125 34.367188 43.257812 34.792969 43.257812 C 35.082031 43.257812 35.339844 43.273438 35.5625 43.3125 C 35.789062 43.34375 35.992188 43.390625 36.171875 43.445312 C 36.351562 43.5 36.507812 43.566406 36.644531 43.644531 C 36.78125 43.71875 36.902344 43.800781 37.011719 43.882812 L 38.210938 43.882812 L 38.210938 45.8125 Z M 42.1875 40.863281 L 42.175781 43.613281 L 43.605469 43.613281 L 43.605469 45.429688 L 42.164062 45.429688 L 42.148438 48.472656 C 42.148438 48.648438 42.164062 48.789062 42.1875 48.898438 C 42.21875 49.007812 42.257812 49.09375 42.308594 49.160156 C 42.363281 49.226562 42.425781 49.269531 42.5 49.292969 C 42.574219 49.316406 42.660156 49.324219 42.757812 49.324219 C 42.929688 49.324219 43.085938 49.308594 43.21875 49.273438 C 43.351562 49.238281 43.488281 49.199219 43.621094 49.152344 L 43.917969 50.492188 C 43.683594 50.640625 43.421875 50.757812 43.132812 50.847656 C 42.84375 50.933594 42.503906 50.980469 42.105469 50.980469 C 41.824219 50.980469 41.558594 50.929688 41.304688 50.832031 C 41.046875 50.734375 40.820312 50.589844 40.628906 50.394531 C 40.433594 50.195312 40.28125 49.949219 40.164062 49.652344 C 40.050781 49.355469 39.996094 49.011719 40 48.617188 L 40.019531 45.429688 L 38.992188 45.429688 L 38.992188 43.613281 L 40.027344 43.613281 L 40.039062 41.890625 Z M 44.945312 47.183594 C 44.945312 46.660156 45.039062 46.167969 45.226562 45.707031 C 45.417969 45.25 45.679688 44.847656 46.015625 44.507812 C 46.351562 44.164062 46.753906 43.894531 47.21875 43.695312 C 47.683594 43.496094 48.195312 43.394531 48.753906 43.394531 C 49.308594 43.394531 49.824219 43.496094 50.289062 43.695312 C 50.757812 43.894531 51.160156 44.164062 51.496094 44.507812 C 51.832031 44.847656 52.09375 45.25 52.28125 45.707031 C 52.464844 46.167969 52.558594 46.660156 52.558594 47.183594 C 52.558594 47.703125 52.46875 48.195312 52.285156 48.65625 C 52.105469 49.117188 51.847656 49.519531 51.511719 49.863281 C 51.179688 50.207031 50.777344 50.480469 50.308594 50.679688 C 49.84375 50.878906 49.324219 50.980469 48.753906 50.980469 C 48.175781 50.980469 47.65625 50.878906 47.1875 50.679688 C 46.722656 50.480469 46.320312 50.210938 45.988281 49.867188 C 45.65625 49.523438 45.398438 49.125 45.21875 48.664062 C 45.035156 48.203125 44.945312 47.707031 44.945312 47.183594 Z M 47.011719 47.183594 C 47.011719 47.453125 47.058594 47.703125 47.148438 47.933594 C 47.242188 48.160156 47.367188 48.359375 47.527344 48.527344 C 47.683594 48.695312 47.867188 48.824219 48.082031 48.917969 C 48.289062 49.007812 48.515625 49.054688 48.753906 49.054688 C 48.996094 49.054688 49.222656 49.011719 49.433594 48.917969 C 49.640625 48.832031 49.824219 48.703125 49.980469 48.535156 C 50.132812 48.367188 50.253906 48.171875 50.339844 47.941406 C 50.429688 47.710938 50.472656 47.457031 50.472656 47.183594 C 50.472656 46.894531 50.429688 46.632812 50.339844 46.402344 C 50.253906 46.171875 50.132812 45.976562 49.980469 45.8125 C 49.824219 45.652344 49.640625 45.527344 49.433594 45.441406 C 49.222656 45.355469 48.996094 45.316406 48.753906 45.320312 C 48.515625 45.316406 48.289062 45.355469 48.082031 45.441406 C 47.867188 45.527344 47.683594 45.652344 47.527344 45.8125 C 47.367188 45.976562 47.242188 46.171875 47.148438 46.402344 C 47.058594 46.632812 47.011719 46.894531 47.011719 47.183594 Z M 53.871094 45.515625 L 53.871094 43.613281 L 56.992188 43.613281 L 56.992188 43.714844 C 57.214844 43.617188 57.441406 43.542969 57.671875 43.484375 C 57.898438 43.425781 58.136719 43.394531 58.382812 43.394531 C 58.90625 43.394531 59.394531 43.496094 59.847656 43.695312 C 60.296875 43.894531 60.6875 44.164062 61.019531 44.507812 C 61.351562 44.847656 61.613281 45.25 61.796875 45.707031 C 61.984375 46.167969 62.078125 46.652344 62.078125 47.167969 C 62.078125 47.683594 61.988281 48.171875 61.804688 48.632812 C 61.625 49.089844 61.371094 49.488281 61.042969 49.828125 C 60.714844 50.167969 60.324219 50.4375 59.871094 50.632812 C 59.417969 50.832031 58.921875 50.929688 58.382812 50.929688 C 58.078125 50.929688 57.792969 50.902344 57.53125 50.84375 C 57.269531 50.785156 57.015625 50.703125 56.773438 50.597656 L 56.773438 52.171875 L 58.140625 52.171875 L 58.140625 54.074219 L 53.472656 54.074219 L 53.472656 52.171875 L 54.644531 52.171875 L 54.644531 45.515625 Z M 58.230469 45.3125 C 57.941406 45.3125 57.667969 45.390625 57.414062 45.539062 C 57.164062 45.695312 56.949219 45.910156 56.773438 46.1875 L 56.773438 48.214844 C 56.921875 48.449219 57.121094 48.644531 57.375 48.792969 C 57.625 48.9375 57.910156 49.011719 58.230469 49.011719 C 58.464844 49.011719 58.6875 48.96875 58.902344 48.878906 C 59.113281 48.789062 59.296875 48.660156 59.453125 48.496094 C 59.609375 48.332031 59.734375 48.136719 59.828125 47.914062 C 59.917969 47.6875 59.964844 47.445312 59.964844 47.183594 C 59.964844 46.890625 59.917969 46.628906 59.828125 46.398438 C 59.738281 46.164062 59.613281 45.96875 59.457031 45.808594 C 59.300781 45.648438 59.117188 45.527344 58.90625 45.441406 C 58.695312 45.355469 58.46875 45.3125 58.230469 45.3125 Z M 73.011719 47.660156 L 67.742188 47.660156 L 67.765625 47.875 C 67.8125 48.085938 67.898438 48.265625 68.019531 48.425781 C 68.144531 48.582031 68.289062 48.714844 68.453125 48.820312 C 68.621094 48.925781 68.804688 49.003906 69.007812 49.058594 C 69.207031 49.113281 69.414062 49.136719 69.621094 49.136719 C 69.828125 49.136719 70.023438 49.125 70.210938 49.101562 C 70.398438 49.074219 70.578125 49.039062 70.753906 48.996094 C 70.929688 48.953125 71.097656 48.902344 71.265625 48.84375 C 71.429688 48.785156 71.597656 48.726562 71.769531 48.660156 L 72.527344 50.082031 C 72.265625 50.246094 72.027344 50.382812 71.808594 50.496094 C 71.589844 50.609375 71.367188 50.703125 71.148438 50.777344 C 70.925781 50.851562 70.691406 50.90625 70.445312 50.941406 C 70.195312 50.976562 69.902344 50.992188 69.570312 50.992188 C 68.953125 50.992188 68.398438 50.890625 67.914062 50.683594 C 67.429688 50.476562 67.023438 50.199219 66.695312 49.847656 C 66.367188 49.496094 66.113281 49.085938 65.941406 48.613281 C 65.769531 48.136719 65.683594 47.636719 65.683594 47.109375 C 65.683594 46.582031 65.773438 46.089844 65.957031 45.625 C 66.140625 45.164062 66.394531 44.757812 66.726562 44.414062 C 67.058594 44.070312 67.453125 43.796875 67.914062 43.597656 C 68.375 43.398438 68.886719 43.300781 69.449219 43.300781 C 70.011719 43.300781 70.507812 43.394531 70.945312 43.582031 C 71.378906 43.769531 71.746094 44.027344 72.046875 44.359375 C 72.34375 44.6875 72.574219 45.078125 72.734375 45.523438 C 72.898438 45.972656 72.984375 46.453125 73 46.964844 C 73.011719 47.082031 73.019531 47.195312 73.023438 47.308594 C 73.027344 47.421875 73.023438 47.539062 73.011719 47.660156 Z M 69.394531 45.035156 C 69.136719 45.035156 68.914062 45.066406 68.734375 45.128906 C 68.550781 45.191406 68.398438 45.277344 68.273438 45.382812 C 68.148438 45.496094 68.050781 45.617188 67.976562 45.757812 C 67.902344 45.894531 67.84375 46.042969 67.804688 46.195312 L 70.792969 46.195312 C 70.761719 46.039062 70.714844 45.890625 70.65625 45.75 C 70.597656 45.609375 70.515625 45.488281 70.410156 45.382812 C 70.300781 45.273438 70.167969 45.191406 70.003906 45.128906 C 69.839844 45.066406 69.636719 45.035156 69.394531 45.035156 Z M 73.929688 41.902344 L 73.929688 40 L 77.160156 40 L 77.160156 48.902344 L 78.261719 48.902344 L 78.261719 50.804688 L 73.929688 50.804688 L 73.929688 48.902344 L 75.035156 48.902344 L 75.035156 41.902344 Z M 86.59375 47.660156 L 81.324219 47.660156 L 81.34375 47.875 C 81.394531 48.085938 81.480469 48.265625 81.601562 48.425781 C 81.722656 48.582031 81.867188 48.714844 82.035156 48.820312 C 82.199219 48.925781 82.382812 49.003906 82.585938 49.058594 C 82.789062 49.113281 82.996094 49.136719 83.203125 49.136719 C 83.410156 49.136719 83.605469 49.125 83.792969 49.101562 C 83.976562 49.074219 84.160156 49.039062 84.335938 48.996094 C 84.511719 48.953125 84.679688 48.902344 84.847656 48.84375 C 85.011719 48.785156 85.179688 48.726562 85.351562 48.660156 L 86.109375 50.082031 C 85.847656 50.246094 85.605469 50.382812 85.386719 50.496094 C 85.167969 50.609375 84.949219 50.703125 84.726562 50.777344 C 84.507812 50.851562 84.273438 50.90625 84.023438 50.941406 C 83.773438 50.976562 83.484375 50.992188 83.152344 50.992188 C 82.53125 50.992188 81.980469 50.890625 81.496094 50.683594 C 81.011719 50.476562 80.605469 50.199219 80.277344 49.847656 C 79.945312 49.496094 79.695312 49.085938 79.523438 48.613281 C 79.351562 48.136719 79.265625 47.636719 79.265625 47.109375 C 79.265625 46.582031 79.355469 46.089844 79.535156 45.625 C 79.71875 45.164062 79.976562 44.757812 80.308594 44.414062 C 80.636719 44.070312 81.035156 43.796875 81.496094 43.597656 C 81.957031 43.398438 82.46875 43.300781 83.03125 43.300781 C 83.589844 43.300781 84.089844 43.394531 84.523438 43.582031 C 84.960938 43.769531 85.328125 44.027344 85.628906 44.359375 C 85.925781 44.6875 86.15625 45.078125 86.320312 45.523438 C 86.480469 45.972656 86.566406 46.453125 86.578125 46.964844 C 86.59375 47.082031 86.601562 47.195312 86.605469 47.308594 C 86.605469 47.421875 86.601562 47.539062 86.59375 47.660156 Z M 82.972656 45.035156 C 82.714844 45.035156 82.496094 45.066406 82.316406 45.128906 C 82.132812 45.191406 81.980469 45.277344 81.855469 45.382812 C 81.730469 45.496094 81.632812 45.617188 81.558594 45.757812 C 81.484375 45.894531 81.425781 46.042969 81.382812 46.195312 L 84.378906 46.195312 C 84.34375 46.039062 84.300781 45.890625 84.238281 45.75 C 84.179688 45.609375 84.09375 45.488281 83.988281 45.382812 C 83.882812 45.273438 83.75 45.191406 83.585938 45.128906 C 83.421875 45.066406 83.21875 45.035156 82.972656 45.035156 Z M 94.925781 46.097656 L 93.019531 46.097656 C 92.820312 45.847656 92.601562 45.660156 92.355469 45.53125 C 92.109375 45.40625 91.824219 45.351562 91.492188 45.367188 C 91.222656 45.351562 90.980469 45.386719 90.761719 45.476562 C 90.542969 45.570312 90.355469 45.699219 90.195312 45.867188 C 90.035156 46.035156 89.914062 46.234375 89.828125 46.460938 C 89.738281 46.691406 89.695312 46.949219 89.695312 47.234375 C 89.695312 47.488281 89.742188 47.730469 89.832031 47.957031 C 89.925781 48.1875 90.050781 48.382812 90.210938 48.542969 C 90.367188 48.710938 90.558594 48.839844 90.777344 48.929688 C 90.996094 49.023438 91.234375 49.078125 91.492188 49.097656 C 91.707031 49.078125 91.90625 49.035156 92.082031 48.960938 C 92.261719 48.890625 92.417969 48.796875 92.554688 48.683594 C 92.691406 48.570312 92.8125 48.441406 92.910156 48.300781 C 93.011719 48.160156 93.085938 48.027344 93.144531 47.902344 L 95.042969 48.429688 C 94.964844 48.710938 94.828125 49 94.636719 49.296875 C 94.449219 49.597656 94.199219 49.875 93.890625 50.121094 C 93.585938 50.367188 93.222656 50.574219 92.800781 50.738281 C 92.378906 50.898438 91.898438 50.980469 91.359375 50.980469 C 90.8125 50.980469 90.308594 50.878906 89.847656 50.675781 C 89.386719 50.476562 88.992188 50.203125 88.660156 49.855469 C 88.328125 49.507812 88.066406 49.097656 87.878906 48.632812 C 87.695312 48.164062 87.601562 47.660156 87.601562 47.125 C 87.601562 46.59375 87.699219 46.097656 87.890625 45.644531 C 88.078125 45.1875 88.34375 44.789062 88.679688 44.449219 C 89.015625 44.105469 89.417969 43.839844 89.878906 43.652344 C 90.339844 43.460938 90.84375 43.378906 91.386719 43.394531 C 91.773438 43.378906 92.148438 43.421875 92.511719 43.527344 C 92.878906 43.636719 93.222656 43.796875 93.550781 44.007812 L 94.925781 44.007812 Z M 98.523438 40.863281 L 98.507812 43.613281 L 99.941406 43.613281 L 99.941406 45.429688 L 98.496094 45.429688 L 98.480469 48.472656 C 98.480469 48.648438 98.496094 48.789062 98.523438 48.898438 C 98.550781 49.007812 98.59375 49.09375 98.644531 49.160156 C 98.699219 49.226562 98.761719 49.269531 98.835938 49.292969 C 98.910156 49.316406 98.992188 49.324219 99.089844 49.324219 C 99.265625 49.324219 99.417969 49.308594 99.554688 49.273438 C 99.6875 49.238281 99.820312 49.199219 99.953125 49.152344 L 100.25 50.492188 C 100.015625 50.640625 99.753906 50.757812 99.464844 50.847656 C 99.179688 50.933594 98.835938 50.980469 98.441406 50.980469 C 98.160156 50.980469 97.890625 50.929688 97.636719 50.832031 C 97.378906 50.734375 97.15625 50.589844 96.960938 50.394531 C 96.769531 50.195312 96.617188 49.949219 96.5 49.652344 C 96.386719 49.355469 96.328125 49.011719 96.332031 48.617188 L 96.355469 45.429688 L 95.324219 45.429688 L 95.324219 43.613281 L 96.363281 43.613281 L 96.375 41.890625 Z M 107.828125 43.625 L 107.828125 46.230469 L 105.886719 46.230469 L 105.886719 45.488281 C 105.699219 45.488281 105.523438 45.5 105.367188 45.523438 C 105.210938 45.550781 105.074219 45.59375 104.957031 45.652344 C 104.839844 45.710938 104.742188 45.796875 104.660156 45.902344 C 104.582031 46.011719 104.523438 46.144531 104.492188 46.300781 L 104.492188 48.902344 L 105.949219 48.902344 L 105.949219 50.804688 L 101.28125 50.804688 L 101.28125 48.902344 L 102.347656 48.902344 L 102.347656 45.515625 L 101.292969 45.515625 L 101.292969 43.613281 L 104.476562 43.613281 L 104.476562 44.117188 C 104.679688 43.957031 104.910156 43.832031 105.160156 43.742188 C 105.414062 43.65625 105.691406 43.613281 105.992188 43.613281 C 106.292969 43.613281 106.609375 43.613281 106.929688 43.617188 C 107.253906 43.625 107.550781 43.625 107.828125 43.625 Z M 108.949219 47.183594 C 108.949219 46.660156 109.042969 46.167969 109.230469 45.707031 C 109.417969 45.25 109.683594 44.847656 110.019531 44.507812 C 110.355469 44.164062 110.753906 43.894531 111.21875 43.695312 C 111.6875 43.496094 112.199219 43.394531 112.753906 43.394531 C 113.3125 43.394531 113.824219 43.496094 114.289062 43.695312 C 114.757812 43.894531 115.160156 44.164062 115.496094 44.507812 C 115.832031 44.847656 116.09375 45.25 116.28125 45.707031 C 116.46875 46.167969 116.558594 46.660156 116.558594 47.183594 C 116.558594 47.703125 116.46875 48.195312 116.289062 48.65625 C 116.105469 49.117188 115.847656 49.519531 115.511719 49.863281 C 115.179688 50.207031 114.777344 50.480469 114.3125 50.679688 C 113.84375 50.878906 113.324219 50.980469 112.753906 50.980469 C 112.179688 50.980469 111.65625 50.878906 111.191406 50.679688 C 110.722656 50.480469 110.320312 50.210938 109.988281 49.867188 C 109.660156 49.523438 109.402344 49.125 109.21875 48.664062 C 109.039062 48.203125 108.949219 47.707031 108.949219 47.183594 Z M 111.015625 47.183594 C 111.015625 47.453125 111.058594 47.703125 111.152344 47.933594 C 111.242188 48.160156 111.367188 48.359375 111.527344 48.527344 C 111.6875 48.695312 111.871094 48.824219 112.082031 48.917969 C 112.289062 49.007812 112.515625 49.054688 112.753906 49.054688 C 112.996094 49.054688 113.222656 49.011719 113.433594 48.917969 C 113.644531 48.832031 113.824219 48.703125 113.980469 48.535156 C 114.132812 48.367188 114.253906 48.171875 114.34375 47.941406 C 114.429688 47.710938 114.476562 47.457031 114.476562 47.183594 C 114.476562 46.894531 114.429688 46.632812 114.34375 46.402344 C 114.253906 46.171875 114.132812 45.976562 113.980469 45.8125 C 113.824219 45.652344 113.644531 45.527344 113.433594 45.441406 C 113.222656 45.355469 112.996094 45.316406 112.753906 45.320312 C 112.515625 45.316406 112.289062 45.355469 112.082031 45.441406 C 111.871094 45.527344 111.6875 45.652344 111.527344 45.8125 C 111.367188 45.976562 111.242188 46.171875 111.152344 46.402344 C 111.058594 46.632812 111.015625 46.894531 111.015625 47.183594 Z M 123.492188 50.804688 L 123.492188 46.667969 C 123.492188 46.265625 123.382812 45.949219 123.171875 45.71875 C 122.960938 45.492188 122.679688 45.375 122.328125 45.375 C 122.089844 45.375 121.847656 45.429688 121.601562 45.535156 C 121.359375 45.640625 121.121094 45.839844 120.894531 46.132812 L 120.894531 48.902344 L 122.054688 48.902344 L 122.054688 50.804688 L 117.605469 50.804688 L 117.605469 48.902344 L 118.65625 48.902344 L 118.65625 45.515625 L 117.617188 45.515625 L 117.617188 43.613281 L 120.878906 43.613281 L 120.878906 44.242188 C 121.175781 44.007812 121.511719 43.820312 121.882812 43.683594 C 122.253906 43.546875 122.644531 43.480469 123.054688 43.480469 C 123.914062 43.480469 124.578125 43.71875 125.042969 44.203125 C 125.511719 44.6875 125.742188 45.398438 125.742188 46.324219 L 125.742188 48.902344 L 126.757812 48.902344 L 126.757812 50.804688 Z M 127.691406 45.515625 L 127.691406 43.613281 L 130.902344 43.613281 L 130.902344 48.902344 L 131.898438 48.902344 L 131.898438 50.804688 L 127.691406 50.804688 L 127.691406 48.902344 L 128.769531 48.902344 L 128.769531 45.515625 Z M 128.65625 41.292969 C 128.65625 41.121094 128.6875 40.960938 128.75 40.8125 C 128.808594 40.660156 128.898438 40.527344 129.007812 40.417969 C 129.121094 40.304688 129.25 40.21875 129.398438 40.152344 C 129.546875 40.089844 129.710938 40.058594 129.886719 40.058594 C 130.050781 40.058594 130.207031 40.089844 130.355469 40.152344 C 130.503906 40.21875 130.632812 40.304688 130.742188 40.417969 C 130.851562 40.527344 130.941406 40.660156 131.007812 40.8125 C 131.070312 40.960938 131.101562 41.121094 131.101562 41.292969 C 131.101562 41.464844 131.070312 41.625 131.007812 41.773438 C 130.941406 41.925781 130.851562 42.054688 130.742188 42.167969 C 130.632812 42.277344 130.503906 42.367188 130.355469 42.433594 C 130.207031 42.496094 130.050781 42.527344 129.886719 42.527344 C 129.710938 42.527344 129.546875 42.496094 129.398438 42.433594 C 129.25 42.367188 129.121094 42.277344 129.007812 42.167969 C 128.898438 42.054688 128.808594 41.925781 128.75 41.773438 C 128.6875 41.625 128.65625 41.464844 128.65625 41.292969 Z M 140.414062 46.097656 L 138.507812 46.097656 C 138.308594 45.847656 138.089844 45.660156 137.84375 45.53125 C 137.601562 45.40625 137.3125 45.351562 136.980469 45.367188 C 136.714844 45.351562 136.472656 45.386719 136.253906 45.476562 C 136.035156 45.570312 135.84375 45.699219 135.683594 45.867188 C 135.527344 46.035156 135.402344 46.234375 135.316406 46.460938 C 135.226562 46.691406 135.183594 46.949219 135.183594 47.234375 C 135.183594 47.488281 135.230469 47.730469 135.320312 47.957031 C 135.414062 48.1875 135.539062 48.382812 135.699219 48.542969 C 135.859375 48.710938 136.046875 48.839844 136.265625 48.929688 C 136.484375 49.023438 136.722656 49.078125 136.980469 49.097656 C 137.195312 49.078125 137.394531 49.035156 137.570312 48.960938 C 137.75 48.890625 137.90625 48.796875 138.042969 48.683594 C 138.179688 48.570312 138.300781 48.441406 138.402344 48.300781 C 138.5 48.160156 138.574219 48.027344 138.632812 47.902344 L 140.53125 48.429688 C 140.453125 48.710938 140.320312 49 140.125 49.296875 C 139.9375 49.597656 139.6875 49.875 139.382812 50.121094 C 139.074219 50.367188 138.710938 50.574219 138.289062 50.738281 C 137.867188 50.898438 137.386719 50.980469 136.851562 50.980469 C 136.300781 50.980469 135.796875 50.878906 135.335938 50.675781 C 134.875 50.476562 134.480469 50.203125 134.148438 49.855469 C 133.816406 49.507812 133.558594 49.097656 133.371094 48.632812 C 133.183594 48.164062 133.09375 47.660156 133.09375 47.125 C 133.09375 46.59375 133.1875 46.097656 133.378906 45.644531 C 133.566406 45.1875 133.832031 44.789062 134.171875 44.449219 C 134.503906 44.105469 134.90625 43.839844 135.367188 43.652344 C 135.828125 43.460938 136.332031 43.378906 136.878906 43.394531 C 137.265625 43.378906 137.640625 43.421875 138.003906 43.527344 C 138.367188 43.636719 138.710938 43.796875 139.039062 44.007812 L 140.414062 44.007812 Z M 145.867188 45.8125 C 145.867188 45.703125 145.828125 45.59375 145.757812 45.492188 C 145.6875 45.390625 145.582031 45.300781 145.445312 45.226562 C 145.304688 45.148438 145.132812 45.089844 144.933594 45.042969 C 144.734375 44.996094 144.507812 44.972656 144.253906 44.972656 C 144.15625 44.972656 144.054688 44.980469 143.945312 44.996094 C 143.832031 45.011719 143.730469 45.039062 143.636719 45.082031 C 143.542969 45.125 143.460938 45.179688 143.402344 45.253906 C 143.339844 45.324219 143.308594 45.417969 143.308594 45.527344 C 143.308594 45.585938 143.316406 45.636719 143.332031 45.6875 C 143.347656 45.738281 143.378906 45.789062 143.425781 45.832031 C 143.472656 45.878906 143.535156 45.921875 143.617188 45.960938 C 143.695312 46 143.800781 46.03125 143.929688 46.054688 L 145.230469 46.3125 C 145.699219 46.402344 146.089844 46.519531 146.410156 46.660156 C 146.726562 46.796875 146.984375 46.960938 147.175781 47.144531 C 147.371094 47.332031 147.507812 47.539062 147.59375 47.765625 C 147.679688 47.992188 147.722656 48.234375 147.722656 48.5 C 147.722656 48.910156 147.625 49.273438 147.4375 49.582031 C 147.246094 49.894531 146.996094 50.152344 146.683594 50.359375 C 146.371094 50.5625 146.023438 50.71875 145.632812 50.820312 C 145.242188 50.925781 144.851562 50.980469 144.457031 50.980469 C 144.199219 50.980469 143.964844 50.960938 143.753906 50.929688 C 143.546875 50.898438 143.355469 50.855469 143.1875 50.800781 C 143.019531 50.742188 142.867188 50.675781 142.738281 50.601562 C 142.605469 50.523438 142.484375 50.441406 142.375 50.347656 L 141.125 50.347656 L 141.125 48.417969 L 143.082031 48.417969 L 143.082031 48.457031 C 143.085938 48.59375 143.125 48.710938 143.207031 48.808594 C 143.28125 48.910156 143.382812 48.992188 143.511719 49.0625 C 143.636719 49.132812 143.78125 49.183594 143.945312 49.21875 C 144.105469 49.253906 144.273438 49.269531 144.457031 49.269531 C 144.871094 49.269531 145.171875 49.214844 145.359375 49.105469 C 145.546875 49 145.640625 48.859375 145.640625 48.6875 C 145.640625 48.554688 145.597656 48.441406 145.507812 48.34375 C 145.414062 48.25 145.25 48.171875 145.011719 48.117188 L 143.6875 47.832031 C 142.855469 47.671875 142.226562 47.402344 141.800781 47.023438 C 141.378906 46.648438 141.164062 46.164062 141.164062 45.570312 C 141.164062 45.222656 141.246094 44.90625 141.410156 44.621094 C 141.570312 44.335938 141.789062 44.09375 142.066406 43.894531 C 142.339844 43.691406 142.664062 43.535156 143.035156 43.425781 C 143.40625 43.3125 143.800781 43.257812 144.226562 43.257812 C 144.515625 43.257812 144.773438 43.273438 145 43.3125 C 145.226562 43.34375 145.429688 43.390625 145.609375 43.445312 C 145.785156 43.5 145.945312 43.566406 146.082031 43.644531 C 146.21875 43.71875 146.339844 43.800781 146.445312 43.882812 L 147.644531 43.882812 L 147.644531 45.8125 Z M 145.867188 45.8125 "/>
</g>
</g>
</svg>
