<!DOCTYPE svg PUBLIC "-//W3C//DTD SVG 1.1//EN" "http://www.w3.org/Graphics/SVG/1.1/DTD/svg11.dtd">
<!-- Uploaded to: SVG Repo, www.svgrepo.com, Transformed by: SVG Repo Mixer Tools -->
<svg width="800px" height="800px" viewBox="-1.6 -1.6 35.20 35.20" version="1.1" xmlns="http://www.w3.org/2000/svg" xmlns:xlink="http://www.w3.org/1999/xlink" xmlns:sketch="http://www.bohemiancoding.com/sketch/ns" fill="#000000">
<g id="SVGRepo_bgCarrier" stroke-width="0"/>
<g id="SVGRepo_tracerCarrier" stroke-linecap="round" stroke-linejoin="round"/>
<g id="SVGRepo_iconCarrier"> <title>plus-square</title> <desc>Created with Sketch Beta.</desc> <defs> </defs> <g id="Page-1" stroke="none" stroke-width="1" fill="none" fill-rule="evenodd" sketch:type="MSPage"> <g id="Icon-Set-Filled" sketch:type="MSLayerGroup" transform="translate(-102.000000, -1037.000000)" fill="rgb(112, 76, 182)"> <path d="M124,1054 L119,1054 L119,1059 C119,1059.55 118.552,1060 118,1060 C117.448,1060 117,1059.55 117,1059 L117,1054 L112,1054 C111.448,1054 111,1053.55 111,1053 C111,1052.45 111.448,1052 112,1052 L117,1052 L117,1047 C117,1046.45 117.448,1046 118,1046 C118.552,1046 119,1046.45 119,1047 L119,1052 L124,1052 C124.552,1052 125,1052.45 125,1053 C125,1053.55 124.552,1054 124,1054 L124,1054 Z M130,1037 L106,1037 C103.791,1037 102,1038.79 102,1041 L102,1065 C102,1067.21 103.791,1069 106,1069 L130,1069 C132.209,1069 134,1067.21 134,1065 L134,1041 C134,1038.79 132.209,1037 130,1037 L130,1037 Z" id="plus-square" sketch:type="MSShapeGroup"> </path> </g> </g> </g>
</svg>