<!DOCTYPE svg PUBLIC "-//W3C//DTD SVG 1.1//EN" "http://www.w3.org/Graphics/SVG/1.1/DTD/svg11.dtd">
<!-- Uploaded to: SVG Repo, www.svgrepo.com, Transformed by: SVG Repo Mixer Tools -->
<svg width="800px" height="800px" viewBox="0 0 512 512" version="1.1" xmlns="http://www.w3.org/2000/svg" xmlns:xlink="http://www.w3.org/1999/xlink" fill="#000000" stroke="#000000">
<g id="SVGRepo_bgCarrier" stroke-width="0"/>
<g id="SVGRepo_tracerCarrier" stroke-linecap="round" stroke-linejoin="round"/>
<g id="SVGRepo_iconCarrier"> <title>shopping-cart-filled</title> <g id="Page-1" stroke="none" stroke-width="1" fill="none" fill-rule="evenodd"> <g id="icon" fill="#ffffff" transform="translate(42.666667, 85.333333)"> <path d="M7.10542736e-15,-1.42108547e-14 L70.3622093,-1.42108547e-14 L89.7493333,85.3333333 L378.389061,85.3333333 L337.246204,277.333333 L89.6377907,277.333333 L36.288,42.6666667 L7.10542736e-15,42.6666667 L7.10542736e-15,-1.42108547e-14 Z M138.666667,384 C156.339779,384 170.666667,369.673112 170.666667,352 C170.666667,334.326888 156.339779,320 138.666667,320 C120.993555,320 106.666667,334.326888 106.666667,352 C106.666667,369.673112 120.993555,384 138.666667,384 Z M288,384 C305.673112,384 320,369.673112 320,352 C320,334.326888 305.673112,320 288,320 C270.326888,320 256,334.326888 256,352 C256,369.673112 270.326888,384 288,384 Z" id="Combined-Shape"> </path> </g> </g> </g>
</svg>